# xmcd
#
# Track frame offsets:
#	150
#	20972
#	48218
#	65562
#	92554
#	118653
#	141068
#	162811
#	184945
#	211389
#
# Disc length: 3068 seconds
#
# Revision: 4
# Processed by: cddbd v1.5.2PL0 Copyright (c) Steve Scherf et al.
# Submitted via: EZCDAudioConverter 8.0.2.1
#
DISCID=8c0bfa0a
DTITLE=Lam Trường - Vol 13. Người Yêu Tôi Khóc
DYEAR=2011
DGENRE=World Pop
TTITLE0=Tôi đi giữa hoàng hôn
TTITLE1=Đừng lừa dối nhau
TTITLE2=Tình nghĩa đôi ta chỉ thế thôi
TTITLE3=Khi Người Yêu Tôi Khóc
TTITLE4=LK Nhìn những mùa thu đi, Tuổi xa người
TTITLE5=Lạnh lùng
TTITLE6=Trên đỉnh mùa đông
TTITLE7=Con đường tình ta đi
TTITLE8=Ai về sông Tương
TTITLE9=Tóc mây
EXTD=
EXTT0=
EXTT1=
EXTT2=
EXTT3=
EXTT4=
EXTT5=
EXTT6=
EXTT7=
EXTT8=
EXTT9=
PLAYORDER=
